<?xml version="1.0" standalone="no"?>
<!DOCTYPE svg PUBLIC "-//W3C//DTD SVG 20010904//EN"
 "http://www.w3.org/TR/2001/REC-SVG-20010904/DTD/svg10.dtd">
<svg version="1.0" xmlns="http://www.w3.org/2000/svg"
 width="260.000000pt" height="260.000000pt" viewBox="0 0 260.000000 260.000000"
 preserveAspectRatio="xMidYMid meet">
 <style>
  path {
    fill: #2c6fa4;
  }
 </style>
<metadata>
Created by potrace 1.11, written by Peter Selinger 2001-2013
</metadata>
<g transform="translate(0.000000,260.000000) scale(0.100000,-0.100000)"
fill="#000000" stroke="none">
<path d="M1199 2207 c-9 -7 -18 -24 -21 -39 -13 -68 88 -96 113 -31 21 56 -45
106 -92 70z"/>
<path d="M754 2170 c-46 -17 -63 -83 -30 -116 22 -21 72 -21 96 1 51 46 -2
138 -66 115z"/>
<path d="M1580 2110 c-25 -25 -25 -45 1 -71 20 -20 51 -19 73 1 15 15 9 61
-10 75 -26 20 -41 18 -64 -5z"/>
<path d="M2524 2012 c-40 -36 -70 -60 -124 -102 -25 -19 -47 -37 -50 -40 -13
-16 -259 -187 -356 -248 -284 -178 -611 -339 -943 -463 -59 -22 -115 -43 -126
-48 -11 -5 -85 -35 -165 -67 -187 -75 -261 -116 -330 -184 -44 -43 -60 -68
-74 -114 -35 -110 -3 -257 72 -334 l31 -32 283 1 c269 0 282 1 258 17 -123 83
-187 211 -159 315 20 75 113 152 329 272 129 72 283 160 330 190 172 108 420
282 528 370 204 166 561 495 537 495 -5 -1 -24 -13 -41 -28z"/>
<path d="M1826 1924 c-10 -25 -7 -41 9 -57 32 -32 87 12 65 53 -13 25 -65 28
-74 4z"/>
<path d="M304 1816 c-66 -29 -66 -121 0 -152 46 -23 86 -9 109 37 24 49 8 95
-39 115 -39 16 -31 16 -70 0z"/>
<path d="M36 1235 c-53 -49 -16 -144 57 -145 40 0 67 17 82 53 36 85 -70 156
-139 92z"/>
<path d="M109 657 c-34 -13 -61 -59 -61 -104 0 -51 45 -94 99 -95 44 0 76 16
93 47 49 91 -35 188 -131 152z"/>
</g>
</svg>
